<?xml version="1.0" encoding="utf-8"?>
<!-- Generator: Adobe Illustrator 19.0.1, SVG Export Plug-In . SVG Version: 6.00 Build 0)  -->
<svg version="1.1" id="Слой_1" xmlns="http://www.w3.org/2000/svg" xmlns:xlink="http://www.w3.org/1999/xlink" x="0px" y="0px"
	 viewBox="0 0 143.7 24"  width="144px" height="24px" style="enable-background:new 0 0 143.7 24;" xml:space="preserve">
<style type="text/css">
	.st0{fill:#5F6264;}
</style>
<g>
	<g>
		<path class="st0" d="M23.1,0H0.9C0.4,0,0,0.4,0,0.9v22.2C0,23.6,0.4,24,0.9,24h4.4v-9.3c0-0.3-0.3-0.6-0.6-0.6H3.8
			c-0.3,0-0.6-0.3-0.6-0.6v-2.3c0-0.3,0.3-0.6,0.6-0.6h0.9c0.3,0,0.6-0.3,0.6-0.6V8.7c0-1.5,0.3-2.6,1-3.3C7,4.6,8.1,4.3,9.7,4.3
			h2.2c0.3,0,0.6,0.3,0.6,0.6v2.3c0,0.3-0.3,0.6-0.6,0.6h-1.1c-0.3,0-0.6,0-0.7,0.1C9.7,7.8,9.6,7.9,9.5,8C9.4,8.1,9.4,8.3,9.4,8.4
			c0,0.1,0,0.3,0,0.6v1.1c0,0.3,0.3,0.6,0.6,0.6h1.9c0.3,0,0.5,0.3,0.5,0.6l-0.2,2.3c0,0.3-0.3,0.6-0.6,0.6H9.9
			c-0.3,0-0.6,0.3-0.6,0.6V24h13.8c0.5,0,0.9-0.4,0.9-0.9V0.9C24,0.4,23.6,0,23.1,0z"/>
	</g>
</g>
<g>
	<path class="st0" d="M46.7,0H25.3C24.6,0,24,0.6,24,1.3v21.4c0,0.7,0.6,1.3,1.3,1.3h21.4c0.7,0,1.3-0.6,1.3-1.3V1.3
		C48,0.6,47.4,0,46.7,0z M31.9,21.8c-3.7,0-5.5-1.8-5.5-3.7c0-0.9,0.5-2.2,2-3.1c1.6-1,3.7-1.1,4.9-1.2c-0.4-0.5-0.8-0.9-0.8-1.7
		c0-0.4,0.1-0.7,0.3-1c-0.3,0-0.6,0.1-0.8,0.1c-2.7,0-4.3-2-4.3-4c0-1.2,0.5-2.5,1.6-3.4c1.5-1.2,3.5-1.5,4.8-1.5h5l-1.7,1H36
		c0.6,0.5,1.8,1.5,1.8,3.5c0,1.9-1.1,2.8-2.2,3.6c-0.3,0.3-0.7,0.7-0.7,1.3c0,0.6,0.4,0.9,0.7,1.1l0.9,0.7c1.1,0.9,2.2,1.8,2.2,3.6
		C38.7,19.4,36.3,21.8,31.9,21.8z M45.6,11.7H43v2.6h-1.3v-2.6h-2.6v-1.3h2.6V7.8H43v2.6h2.6L45.6,11.7L45.6,11.7z"/>
	<path class="st0" d="M35.6,7.9c0-1.8-1.1-4.7-3.2-4.7c-0.7,0-1.4,0.3-1.8,0.8C30.1,4.5,30,5.2,30,5.9c0,1.7,1,4.6,3.2,4.6
		c0.6,0,1.3-0.3,1.7-0.7C35.5,9.1,35.6,8.3,35.6,7.9z"/>
	<path class="st0" d="M34.2,14.6c-0.2,0-0.3,0-0.6,0c-0.2,0-1.6,0.1-2.7,0.4c-0.6,0.2-2.2,0.8-2.2,2.6c0,1.8,1.8,3.1,4.5,3.1
		c2.5,0,3.8-1.2,3.8-2.8C37,16.7,36.1,16,34.2,14.6z"/>
</g>
<g>
	<path id="LinkedIn__x28_alt_x29_" class="st0" d="M69.9,0H49.4c-1,0-1.8,0.8-1.8,1.7v20.6c0,0.9,0.8,1.7,1.8,1.7h20.5
		c1,0,1.8-0.8,1.8-1.7V1.7C71.7,0.8,70.9,0,69.9,0z M54.9,20.1h-3.6V9.3h3.6V20.1z M53.1,7.8L53.1,7.8c-1.2,0-2-0.8-2-1.9
		c0-1.1,0.8-1.9,2.1-1.9c1.2,0,2,0.8,2,1.9C55.2,6.9,54.4,7.8,53.1,7.8z M68,20.1h-3.6v-5.8c0-1.5-0.5-2.5-1.8-2.5
		c-1,0-1.6,0.7-1.9,1.3c-0.1,0.2-0.1,0.6-0.1,0.9v6.1h-3.6c0,0,0-9.8,0-10.8h3.6v1.5c0.5-0.7,1.3-1.8,3.3-1.8c2.4,0,4.2,1.5,4.2,4.9
		C68,13.9,68,20.1,68,20.1z M60.5,10.8C60.6,10.8,60.6,10.8,60.5,10.8L60.5,10.8L60.5,10.8z"/>
</g>
<g>
	<path class="st0" d="M72.9,0h21.6c0.7,0,1.2,0.5,1.2,1.2v21.6c0,0.7-0.5,1.2-1.2,1.2H72.9c-0.7,0-1.2-0.5-1.2-1.2V1.2
		C71.7,0.5,72.2,0,72.9,0L72.9,0z M79.1,7.7c0,2.5,2.1,4.6,4.6,4.6s4.6-2.1,4.6-4.6c0-2.5-2-4.6-4.6-4.6S79.1,5.2,79.1,7.7L79.1,7.7
		z M83.7,13.5c-1,0-2-0.3-2.8-0.7c-0.4-0.2-0.5-0.4-0.9-0.4c-0.8,0-1.4,0.6-1.4,1.4c0,0.5,0.2,0.9,0.6,1.1c0.1,0.1,0.1,0.1,0.2,0.1
		c0.7,0.4,1.5,0.8,2.4,1l-2.5,2.5c-0.5,0.5-0.5,1.4,0,1.9c0.5,0.5,1.4,0.5,1.9,0l2.6-2.6l2.6,2.6c0.5,0.5,1.4,0.5,1.9,0
		c0.5-0.5,0.5-1.4,0-1.9L85.7,16c0.9-0.2,1.6-0.5,2.4-1c0.1,0,0.1-0.1,0.2-0.1c0.3-0.2,0.6-0.6,0.6-1.1c0-0.8-0.6-1.4-1.4-1.4
		c-0.5,0-0.6,0.2-0.9,0.4C85.7,13.3,84.7,13.5,83.7,13.5L83.7,13.5z M83.7,9.6c-1.1,0-1.9-0.9-1.9-1.9s0.9-1.9,1.9-1.9
		c1.1,0,1.9,0.9,1.9,1.9S84.7,9.6,83.7,9.6L83.7,9.6z"/>
</g>
<g>
	<path class="st0" d="M117.8,0H97.6c-1.1,0-1.9,0.9-1.9,2v20c0,1.1,0.9,2,1.9,2h20.2c1.1,0,1.9-0.9,1.9-2V2
		C119.7,0.9,118.8,0,117.8,0z M107.6,14.3c0.3,0.4,0.7,0.5,1.2,0.5h3.5c0.5,0,0.9,0.2,1.2,0.5c0.3,0.4,0.5,0.8,0.5,1.3
		c0,0.5-0.2,0.9-0.5,1.3c-0.3,0.4-0.8,0.5-1.2,0.5h-3.5c-1.4,0-2.7-0.5-3.7-1.6c-1-1.1-1.5-2.4-1.5-3.9V5.7c0-0.5,0.2-1,0.5-1.3
		c0.3-0.4,0.8-0.5,1.3-0.5c0.5,0,0.9,0.2,1.2,0.5c0.3,0.4,0.5,0.8,0.5,1.3v1.8h5.2c0.5,0,0.9,0.2,1.2,0.5c0.4,0.4,0.5,0.8,0.5,1.3
		c0,0.5-0.2,0.9-0.5,1.3c-0.3,0.4-0.8,0.5-1.2,0.5h-5.2V13C107.1,13.5,107.3,14,107.6,14.3z"/>
</g>
<g>
	<path class="st0" d="M133.4,7c0.1,1.4-0.1,2.9,0.1,4.3c0,0.4,0.4,0.8,0.9,0.3c1.3-1.4,2.5-4.1,2.6-4.5c0.1-0.3,0.3-0.4,0.5-0.4h3.6
		c0.4,0,1.1,0.2,0.6,1.2c-0.9,1.8-1.9,2.7-2.9,4.2c-0.3,0.4-0.4,0.9-0.1,1.2c1,1,2.3,2.1,2.9,3.1c0.5,0.8,0,1.4-0.7,1.4h-3.1
		c-0.4,0-0.8-0.2-1.1-0.4c-0.7-0.5-1.2-1.2-1.8-1.8c-0.6-0.6-1-0.5-1.2,0c-0.2,0.4-0.3,0.9-0.3,1.7c0,0.4-0.3,0.6-0.7,0.6h-1.5
		c-3.2,0-5.6-2.4-7.4-5.8c-0.9-1.6-1.7-3-2.4-4.7c-0.1-0.3,0.1-0.6,0.6-0.6h2.9c0.4,0,0.7,0.2,0.8,0.4c0.8,1.9,1.8,3.5,2.6,4.5
		c0.2,0.2,0.6,0.3,0.8,0c0.4-0.5,0.3-3.6,0.1-4c-0.4-0.8-1.1-0.5-1.1-0.7c0-0.4,0.6-0.8,2.8-0.9C132.6,6.2,133.4,6.3,133.4,7
		L133.4,7z M120.9,24h21.6c0.7,0,1.2-0.5,1.2-1.2V1.2c0-0.7-0.5-1.2-1.2-1.2h-21.6c-0.7,0-1.2,0.5-1.2,1.2v21.6
		C119.7,23.5,120.2,24,120.9,24L120.9,24z"/>
</g>
<path class="st0" d="M0,0"/>
</svg>
